<?xml version="1.0" standalone="no"?>
<!DOCTYPE svg PUBLIC "-//W3C//DTD SVG 20010904//EN"
 "http://www.w3.org/TR/2001/REC-SVG-20010904/DTD/svg10.dtd">
<svg version="1.0" xmlns="http://www.w3.org/2000/svg"
 width="1257.000000pt" height="1257.000000pt" viewBox="0 0 1257.000000 1257.000000"
 preserveAspectRatio="xMidYMid meet">
<metadata>
Created by potrace 1.11, written by Peter Selinger 2001-2013
</metadata>
<g transform="translate(0.000000,1257.000000) scale(0.100000,-0.100000)"
fill="#000000" stroke="none">
<path d="M8950 11799 c-105 -12 -128 -17 -430 -90 -686 -167 -1295 -380 -1830
-641 -304 -148 -346 -184 -464 -398 -68 -122 -95 -157 -145 -187 -73 -45 -114
-29 -241 98 -128 127 -247 176 -645 264 -157 35 -261 68 -365 117 -344 161
-796 296 -1250 374 -14 3 -59 11 -100 19 -41 8 -115 21 -165 30 -49 8 -102 17
-117 20 -16 3 -40 7 -55 10 -61 11 -200 35 -228 40 -16 3 -39 7 -51 10 -12 3
-36 7 -55 10 -19 2 -61 9 -94 14 -33 5 -141 8 -240 6 -172 -3 -223 -7 -290
-22 -38 -9 -34 -8 -75 -17 -126 -28 -331 -116 -448 -193 -135 -88 -297 -227
-487 -418 -140 -141 -171 -175 -283 -315 -51 -63 -96 -120 -101 -126 -34 -42
-167 -246 -215 -329 -31 -55 -61 -107 -66 -115 -44 -76 -152 -312 -197 -429
-29 -74 -113 -318 -118 -341 -2 -8 -15 -53 -28 -100 -41 -139 -92 -370 -113
-510 -3 -19 -7 -46 -9 -60 -3 -14 -7 -50 -11 -80 -3 -30 -7 -66 -10 -80 -19
-117 -26 -629 -10 -780 27 -275 51 -424 97 -620 16 -69 32 -133 34 -144 18
-78 95 -320 137 -431 187 -493 527 -870 998 -1106 154 -77 318 -139 785 -299
394 -135 375 -126 375 -163 0 -31 -118 -233 -185 -317 -55 -69 -131 -131 -221
-180 -68 -38 -120 -77 -171 -127 -106 -105 -145 -169 -280 -463 -58 -126 -138
-222 -228 -274 -134 -78 -224 -173 -367 -386 -61 -91 -126 -184 -146 -208 -78
-98 -94 -228 -41 -339 64 -132 157 -183 267 -145 57 19 109 73 152 158 42 82
225 410 266 476 83 135 114 181 183 273 66 89 242 275 311 331 14 11 82 60
150 109 69 50 127 92 130 95 3 3 21 17 40 30 232 159 630 480 883 713 59 54
111 77 178 77 31 0 58 -2 61 -5 3 -3 -13 -25 -36 -48 -100 -99 -122 -172 -75
-241 13 -20 65 -65 114 -100 148 -104 174 -139 160 -213 -5 -30 -25 -55 -95
-123 -48 -47 -133 -130 -189 -184 -164 -159 -276 -308 -405 -539 -83 -149
-113 -192 -188 -273 -72 -76 -169 -143 -270 -185 -40 -16 -74 -30 -76 -29 -1
0 -14 -3 -30 -6 -48 -12 -100 -43 -122 -74 -36 -51 -33 -90 17 -193 57 -116
92 -204 155 -387 68 -198 113 -291 188 -385 63 -80 126 -143 145 -146 45 -7
64 -5 93 9 71 32 84 90 47 199 -24 69 -27 95 -31 243 -2 91 -5 174 -7 185 -6
27 14 63 57 104 41 40 44 61 16 116 -24 48 -26 103 -4 149 17 35 250 270 454
456 348 319 523 501 666 695 41 55 78 105 84 112 5 7 10 15 10 17 0 3 15 29
34 58 76 120 153 295 196 448 41 148 51 175 76 218 46 78 153 133 289 147 66
7 324 53 335 60 4 2 22 7 41 10 113 19 350 105 499 181 259 132 447 292 599
510 105 150 154 248 241 482 20 52 48 82 78 82 16 0 54 -18 87 -41 233 -158
305 -199 429 -248 94 -38 208 -69 281 -78 111 -14 377 -5 406 13 4 2 30 7 57
10 105 11 146 -30 206 -209 115 -345 254 -609 591 -1122 61 -93 133 -204 160
-245 27 -41 53 -77 57 -78 5 -2 8 -8 8 -13 0 -8 66 -106 80 -119 3 -3 14 -18
24 -35 11 -16 23 -34 28 -40 4 -5 46 -60 92 -120 177 -230 366 -427 546 -567
97 -76 83 -65 180 -133 112 -79 210 -177 243 -246 23 -46 28 -71 31 -154 4
-117 7 -133 53 -285 19 -63 36 -123 38 -133 2 -9 6 -21 9 -25 11 -18 20 -111
19 -187 -1 -57 -7 -94 -22 -128 -37 -85 -21 -150 43 -181 45 -21 84 -20 121 2
43 27 143 130 171 177 50 87 312 842 315 912 4 82 -36 125 -136 149 -190 46
-274 85 -369 174 -63 58 -117 136 -199 286 -188 345 -395 601 -733 912 -91 83
-131 143 -164 246 -17 53 -17 161 0 221 39 140 325 296 531 290 61 -1 75 -6
151 -50 177 -104 282 -160 613 -330 364 -187 586 -308 672 -366 23 -16 44 -29
46 -29 10 0 205 -135 287 -199 291 -226 459 -470 519 -756 16 -78 21 -120 26
-234 6 -122 23 -188 62 -248 33 -51 79 -75 154 -81 47 -3 66 0 109 22 86 43
166 148 220 288 38 97 40 145 12 263 -23 101 -28 128 -37 200 -3 28 -8 61 -10
75 -3 14 -7 54 -11 90 -3 36 -7 76 -9 90 -12 123 -38 201 -81 244 -40 40 -73
52 -169 61 -79 6 -131 19 -192 46 -24 11 -45 19 -49 19 -3 0 -38 22 -78 50
-89 62 -181 156 -316 325 -132 165 -141 175 -223 257 -124 123 -245 203 -367
243 -115 37 -272 112 -368 176 -216 145 -379 324 -553 606 -103 169 -139 221
-186 275 -73 83 -87 127 -56 174 21 32 71 58 203 104 488 172 832 388 1064
670 73 88 136 176 136 189 0 5 4 11 8 13 7 3 73 118 108 188 85 173 160 405
198 615 26 143 39 296 39 470 1 103 -11 318 -19 357 -2 13 -6 48 -8 78 -5 53
-21 172 -30 216 -2 12 -7 38 -10 59 -61 381 -233 842 -443 1190 -191 316 -464
632 -739 855 -283 229 -551 398 -790 497 -46 20 -224 71 -269 78 -122 19 -242
24 -335 14z m-4425 -2944 c19 -4 20 -11 16 -177 -2 -95 -3 -184 -2 -198 0 -14
3 -97 6 -184 2 -89 9 -162 15 -166 5 -3 7 -18 5 -33 -13 -70 -25 -267 -17
-268 4 -1 81 -2 172 -3 91 -1 171 -5 178 -9 7 -5 12 -4 12 2 0 14 46 14 71 0
29 -15 38 -48 28 -109 -17 -112 -15 -110 -124 -116 -38 -2 -75 -6 -82 -8 -7
-3 -15 -1 -18 5 -4 5 -10 7 -14 5 -11 -7 -110 -17 -205 -21 -57 -2 -83 1 -93
10 -7 8 -37 17 -66 20 -30 4 -58 10 -64 13 -14 10 -24 127 -28 347 -6 301 -6
331 0 500 7 213 8 276 2 281 -3 3 1 26 7 52 11 40 17 49 47 59 30 10 97 9 154
-2z m1141 -21 c21 -16 27 -30 31 -81 7 -77 -1 -111 -31 -122 -12 -5 -93 -11
-180 -12 -86 -2 -161 -6 -166 -9 -16 -10 -19 -57 -5 -83 9 -17 12 -56 10 -121
-2 -58 0 -96 6 -96 6 0 7 -4 4 -10 -3 -5 -2 -10 4 -10 5 0 11 4 13 10 2 5 42
11 90 13 67 3 90 1 99 -10 7 -8 19 -11 27 -8 9 3 19 0 24 -7 13 -21 9 -95 -8
-137 -18 -46 -53 -65 -134 -75 -76 -9 -88 -11 -96 -19 -10 -9 -15 -61 -17
-162 l-2 -90 70 1 c39 0 103 3 142 7 66 6 75 4 97 -16 32 -28 48 -108 31 -157
-10 -29 -19 -37 -55 -47 -88 -26 -475 -41 -504 -20 -13 10 -17 39 -22 172 -3
88 -7 178 -8 201 -2 23 2 68 9 100 7 38 10 128 8 249 -2 105 -4 217 -4 250 -1
33 4 89 10 125 14 84 14 121 1 100 -7 -11 -10 -4 -10 28 0 31 4 42 15 42 8 0
15 -8 15 -17 1 -16 2 -16 13 -3 23 28 88 35 320 34 159 -1 181 -3 203 -20z
m2170 16 c16 0 26 -14 47 -67 14 -38 30 -86 37 -108 6 -22 29 -76 50 -120 52
-108 85 -182 100 -227 6 -21 15 -38 19 -38 4 0 15 -28 25 -62 35 -120 65 -204
120 -338 31 -74 56 -144 56 -155 0 -12 9 -39 20 -60 18 -35 19 -40 5 -43 -15
-3 -15 -5 0 -22 10 -11 24 -16 33 -13 10 4 14 3 10 -2 -4 -4 -27 -12 -50 -16
-24 -5 -71 -14 -104 -21 -66 -12 -129 -3 -129 20 0 7 -5 16 -11 20 -11 7 -50
125 -79 240 -23 90 -56 147 -87 150 -16 2 -28 7 -28 12 0 5 -11 4 -25 -2 -14
-6 -25 -14 -25 -17 0 -3 -24 -7 -52 -8 -164 -5 -172 -8 -182 -50 -11 -42 -65
-183 -81 -207 -15 -23 -15 -22 -15 -64 0 -16 -9 -38 -19 -49 -14 -15 -17 -23
-8 -32 6 -6 7 -11 1 -12 -5 0 -18 -2 -29 -4 -53 -10 -225 -12 -225 -3 0 5 4 7
9 4 9 -6 37 21 29 29 -2 3 -17 6 -31 7 -32 3 -32 3 -7 38 11 16 23 43 27 62 3
18 12 36 19 41 7 4 11 14 8 22 -4 8 -1 15 5 15 6 0 11 6 11 14 0 7 9 35 19 62
10 27 30 83 44 124 21 64 122 335 147 395 5 11 43 124 86 252 86 259 71 240
179 236 33 -1 69 -2 81 -3z m-6542 -23 c58 -25 135 -86 160 -126 44 -72 54
-115 51 -211 -4 -103 -23 -145 -93 -208 -34 -30 -36 -33 -19 -46 9 -7 17 -18
17 -23 0 -5 9 -18 19 -27 24 -22 69 -112 76 -152 11 -66 13 -94 6 -94 -4 0 -5
-15 -3 -34 5 -40 -12 -99 -39 -138 -11 -14 -19 -33 -19 -42 0 -9 -11 -18 -25
-22 -14 -3 -25 -12 -25 -18 0 -16 -48 -60 -87 -80 -35 -17 -189 -43 -316 -52
-59 -4 -99 -2 -141 9 -33 9 -63 14 -67 11 -17 -10 -22 50 -24 251 -2 116 -5
230 -9 255 -3 25 -8 169 -10 320 -3 151 -7 302 -11 335 -8 84 4 97 97 102 40
3 74 6 76 8 2 1 81 2 175 1 134 -2 181 -7 211 -19z m577 8 c12 -8 11 -84 -2
-165 -6 -36 -12 -157 -14 -270 -3 -196 -2 -211 26 -345 16 -77 32 -155 36
-172 3 -18 8 -33 12 -33 3 0 20 -12 36 -26 25 -21 37 -25 70 -21 l40 5 -45
-23 -45 -24 36 3 c36 2 49 11 118 79 51 50 71 94 76 165 2 31 7 89 11 127 4
39 7 84 6 100 0 17 -3 127 -6 245 -2 118 -7 225 -9 236 -3 12 1 34 9 49 8 15
14 34 14 41 0 8 10 14 23 14 13 0 27 3 31 7 7 7 108 5 115 -3 2 -2 5 -25 7
-52 1 -26 7 -65 12 -87 6 -22 13 -76 16 -120 3 -44 9 -127 13 -185 16 -227 1
-414 -41 -515 -42 -101 -165 -215 -296 -277 -89 -42 -147 -47 -208 -17 -26 12
-62 30 -81 38 -49 23 -123 102 -117 125 3 10 0 30 -6 45 -6 14 -11 36 -12 49
-1 13 -8 27 -15 31 -7 5 -12 10 -10 12 1 2 -3 20 -9 39 -15 45 -21 81 -27 155
-3 33 -10 116 -15 185 -6 69 -9 134 -6 145 7 38 16 100 21 165 6 62 20 138 32
170 4 8 8 26 10 39 7 44 22 60 66 69 43 9 111 7 128 -3z m1236 -4 c71 -20 162
-97 197 -166 28 -55 31 -68 30 -160 -1 -116 -9 -138 -83 -213 -40 -41 -47 -52
-33 -56 16 -6 24 -17 78 -106 34 -56 46 -106 46 -185 -1 -78 -17 -149 -42
-178 -8 -9 -17 -27 -20 -40 -4 -13 -15 -23 -28 -25 -12 -2 -22 -9 -22 -16 0
-21 -62 -70 -110 -88 -25 -9 -67 -19 -95 -22 -27 -4 -75 -10 -105 -14 -150
-19 -305 1 -320 43 -4 11 -5 65 -4 120 6 167 4 223 -10 370 -4 39 -9 189 -11
335 -2 146 -6 288 -9 315 -9 72 5 85 96 92 40 2 74 6 75 7 9 8 336 -3 370 -13z
m885 -2 c20 -8 64 -36 98 -62 90 -70 115 -128 114 -262 -1 -117 -12 -147 -83
-214 -39 -37 -43 -45 -30 -55 20 -15 71 -91 98 -146 18 -37 22 -63 22 -140 0
-52 -5 -109 -11 -125 -6 -17 -12 -32 -12 -35 0 -3 -8 -16 -17 -30 -10 -14 -21
-33 -24 -42 -4 -10 -16 -18 -27 -18 -11 0 -20 -7 -20 -15 0 -39 -96 -93 -189
-106 -36 -5 -82 -12 -101 -15 -122 -20 -301 -6 -334 26 -5 5 -8 60 -7 122 2
193 1 272 -5 298 -6 31 -15 250 -18 505 -2 105 -6 205 -10 223 -8 36 8 92 28
93 53 2 152 11 154 13 1 2 78 2 170 1 111 -2 179 -7 204 -16z m2878 5 c66 -8
150 -34 150 -46 0 -5 -7 -8 -15 -4 -9 3 -15 0 -15 -9 0 -8 4 -15 8 -15 5 0 17
-7 28 -16 10 -8 13 -13 7 -9 -28 14 -32 -8 -7 -46 14 -22 24 -48 23 -57 -1 -9
2 -37 7 -62 8 -44 8 -44 15 -15 6 28 7 29 14 8 10 -30 29 -30 22 0 -4 12 -2
28 2 36 7 10 12 8 25 -10 11 -16 14 -34 9 -63 -6 -43 -48 -146 -58 -146 -3 0
-3 5 0 10 3 6 -1 10 -9 10 -9 0 -16 -2 -16 -4 0 -2 -3 -11 -6 -20 -4 -11 0
-14 15 -11 l21 4 -20 -40 c-21 -39 -33 -48 -45 -29 -7 12 -25 4 -25 -11 0 -5
9 -9 19 -9 18 0 18 -2 5 -27 -7 -16 -32 -46 -54 -67 -29 -29 -37 -42 -28 -48
32 -19 -133 -123 -178 -112 -13 4 -35 -1 -54 -12 -27 -16 -32 -17 -40 -4 -7
12 -12 12 -22 2 -9 -9 -9 -12 3 -12 10 0 11 -2 2 -8 -7 -5 -16 -30 -19 -58 -7
-61 -7 -55 0 -139 11 -122 11 -224 0 -235 -15 -15 -162 -14 -180 1 -23 19 -35
46 -39 92 -2 23 -7 71 -11 107 -3 36 -5 101 -4 145 2 78 0 615 -3 804 -2 93
-2 95 23 101 28 8 119 18 219 25 35 3 67 7 69 10 5 5 72 0 162 -11z m2050 -19
c63 -14 111 -20 120 -15 11 6 20 3 28 -11 7 -11 17 -17 21 -14 10 5 61 -50 61
-66 0 -6 10 -31 21 -57 12 -25 22 -51 23 -57 1 -5 5 -16 9 -22 18 -28 -5 -114
-40 -155 -8 -9 -16 -23 -17 -32 -3 -20 -86 -153 -108 -174 -10 -9 -18 -24 -18
-33 0 -19 29 -93 76 -194 54 -118 107 -268 108 -309 1 -42 -12 -54 -101 -88
-40 -15 -44 -15 -66 3 -14 10 -29 35 -35 56 -17 62 -57 163 -100 253 -46 99
-56 122 -54 133 1 4 -5 7 -14 7 -9 0 -12 -5 -8 -12 5 -8 0 -9 -15 -5 -14 3
-36 -2 -56 -13 -24 -13 -36 -15 -44 -7 -6 6 -13 8 -16 5 -14 -13 -25 -137 -19
-206 11 -133 11 -222 0 -237 -18 -25 -221 -19 -237 7 -22 35 -20 229 2 236 5
2 6 9 2 15 -10 17 -11 137 -1 137 5 0 8 41 7 90 -1 50 -4 90 -8 90 -4 0 -8 20
-10 45 -1 26 2 45 9 45 5 0 10 7 10 15 0 8 -4 15 -8 15 -5 0 -9 15 -9 33 -1
31 -6 113 -18 277 -14 183 -15 169 19 205 69 73 264 90 486 40z m1096 10 c36
-17 41 -27 59 -106 10 -46 10 -63 -1 -87 -14 -35 -42 -44 -149 -47 -38 -1 -75
-3 -82 -4 -23 -2 -32 -150 -21 -371 5 -104 -7 -462 -17 -526 -5 -27 -8 -56 -7
-64 3 -27 -14 -42 -69 -59 -41 -14 -62 -16 -89 -9 -45 13 -48 16 -51 63 -1 22
-5 44 -8 49 -5 11 -8 96 -9 286 -1 69 -2 175 -3 235 -1 61 -2 174 -2 253 1
142 0 143 -23 153 -14 5 -35 9 -47 9 -61 0 -97 4 -97 12 0 4 7 8 16 8 8 0 12
5 9 10 -4 6 -3 10 2 9 26 -4 93 2 93 9 0 10 -4 11 -90 16 -69 4 -96 -3 -64
-15 16 -6 15 -8 -8 -8 -19 -1 -26 3 -22 13 3 7 -3 15 -13 18 -18 5 -19 16 -14
123 l1 31 78 1 c249 5 516 14 520 17 7 8 77 -5 108 -19z m921 10 c4 -13 -62
-239 -77 -260 -3 -5 -15 -32 -25 -60 -10 -27 -43 -93 -74 -145 -30 -52 -60
-104 -66 -115 -7 -12 -9 -53 -7 -100 6 -122 6 -422 0 -493 -3 -35 -12 -70 -19
-76 -31 -28 -191 -47 -205 -25 -6 11 -16 407 -14 587 0 75 -3 89 -32 145 -18
34 -48 85 -68 112 -19 28 -48 75 -64 105 -16 30 -35 62 -42 70 -21 25 -87 231
-77 241 5 5 50 11 99 14 l91 6 85 -143 c47 -79 95 -161 107 -183 12 -22 21
-36 21 -31 0 5 7 3 15 -4 19 -16 32 -5 16 13 -12 16 1 69 37 147 11 25 33 74
47 110 15 36 31 69 35 74 22 23 208 32 217 11z m-1589 -211 c4 2 16 0 27 -5
16 -6 13 -7 -10 -4 -16 2 -36 4 -42 4 -7 1 -13 11 -13 23 l0 22 16 -22 c8 -12
18 -21 22 -18z m57 16 c3 -5 1 -10 -4 -10 -6 0 -11 5 -11 10 0 6 2 10 4 10 3
0 8 -4 11 -10z"/>
<path d="M4365 8538 c-3 -7 -3 -22 -1 -33 3 -11 5 -22 5 -25 3 -14 21 28 21
48 0 23 -18 30 -25 10z"/>
<path d="M4340 8328 c0 -12 3 -18 7 -14 11 10 12 36 2 36 -5 0 -9 -10 -9 -22z"/>
<path d="M4336 8285 c-3 -8 -1 -15 4 -15 13 0 22 18 11 24 -5 3 -11 -1 -15 -9z"/>
<path d="M4400 7936 c0 -8 4 -17 9 -20 5 -4 7 3 4 14 -6 23 -13 26 -13 6z"/>
<path d="M4975 7760 c-3 -5 -1 -10 4 -10 6 0 11 5 11 10 0 6 -2 10 -4 10 -3 0
-8 -4 -11 -10z"/>
<path d="M4967 7693 c-3 -5 -1 -17 4 -28 7 -17 8 -17 8 8 1 27 -4 34 -12 20z"/>
<path d="M5490 8280 c-12 -8 -10 -10 8 -10 13 0 20 4 17 10 -7 12 -6 12 -25 0z"/>
<path d="M5330 8263 c0 -26 16 -48 24 -34 4 6 1 11 -6 11 -10 0 -10 2 1 9 7 5
10 14 7 20 -11 17 -26 13 -26 -6z"/>
<path d="M5340 8206 c0 -2 6 -9 13 -15 10 -8 14 -7 14 4 0 8 -6 15 -14 15 -7
0 -13 -2 -13 -4z"/>
<path d="M5310 8005 c0 -14 5 -25 10 -25 6 0 10 11 10 25 0 14 -4 25 -10 25
-5 0 -10 -11 -10 -25z"/>
<path d="M5346 7779 c6 -11 54 -12 54 -1 0 4 -13 7 -30 8 -16 1 -27 -3 -24 -7z"/>
<path d="M5442 7779 c10 -6 58 -2 66 6 2 1 -15 2 -37 2 -23 -1 -36 -4 -29 -8z"/>
<path d="M5480 7742 c0 -4 10 -9 22 -9 18 -2 20 0 8 7 -18 12 -30 13 -30 2z"/>
<path d="M7736 8341 c-36 -56 -75 -157 -67 -170 4 -6 36 -12 72 -14 35 -1 67
-6 70 -11 4 -4 16 -5 27 -2 18 6 20 13 15 39 -6 35 -78 197 -87 197 -3 0 -17
-18 -30 -39z"/>
<path d="M1050 8614 c0 -8 5 -12 10 -9 6 3 10 10 10 16 0 5 -4 9 -10 9 -5 0
-10 -7 -10 -16z"/>
<path d="M1006 8570 c-2 -5 0 -142 3 -217 1 -32 2 -33 49 -33 26 0 60 7 76 15
15 8 34 15 41 15 7 0 18 7 25 15 7 9 15 13 18 10 13 -12 42 53 42 93 0 80 -66
117 -195 110 -31 -2 -58 -5 -59 -8z"/>
<path d="M1022 8051 c-18 -11 -26 -250 -9 -252 44 -6 127 -4 127 2 0 4 13 10
28 14 52 11 102 69 102 118 0 41 -59 104 -105 112 -69 12 -129 15 -143 6z"/>
<path d="M2268 8703 c7 -3 16 -2 19 1 4 3 -2 6 -13 5 -11 0 -14 -3 -6 -6z"/>
<path d="M2385 8650 c-3 -5 -1 -10 4 -10 6 0 11 5 11 10 0 6 -2 10 -4 10 -3 0
-8 -4 -11 -10z"/>
<path d="M1661 8594 c0 -11 3 -14 6 -6 3 7 2 16 -1 19 -3 4 -6 -2 -5 -13z"/>
<path d="M1640 8165 c0 -8 4 -15 10 -15 5 0 7 7 4 15 -4 8 -8 15 -10 15 -2 0
-4 -7 -4 -15z"/>
<path d="M1801 8087 c-9 -12 -8 -16 3 -20 19 -7 27 4 17 21 -6 10 -10 10 -20
-1z"/>
<path d="M2356 7945 c-3 -8 -1 -15 4 -15 6 0 10 7 10 15 0 8 -2 15 -4 15 -2 0
-6 -7 -10 -15z"/>
<path d="M1740 7825 c-10 -12 -10 -21 -1 -41 6 -14 9 -29 7 -33 -3 -4 4 -12
14 -19 11 -6 21 -8 23 -4 6 11 -19 53 -27 45 -3 -4 -4 10 -2 30 6 41 4 44 -14
22z"/>
<path d="M2005 7630 c3 -5 8 -10 11 -10 2 0 4 5 4 10 0 6 -5 10 -11 10 -5 0
-7 -4 -4 -10z"/>
<path d="M2991 8696 c-8 -10 -9 -16 -1 -21 5 -3 13 1 16 10 9 22 -1 29 -15 11z"/>
<path d="M2970 8630 c0 -11 5 -20 10 -20 6 0 10 9 10 20 0 11 -4 20 -10 20 -5
0 -10 -9 -10 -20z"/>
<path d="M2843 8567 c-8 -10 -9 -85 -4 -216 l1 -33 58 4 c60 5 134 35 171 69
15 15 21 32 21 65 0 51 -21 89 -59 108 -33 17 -177 19 -188 3z"/>
<path d="M2857 8051 c-16 -6 -18 -22 -21 -128 -4 -137 -7 -134 82 -128 50 3
152 44 152 61 0 7 5 14 11 16 5 2 13 22 16 44 5 37 2 46 -31 82 -37 41 -67 52
-151 57 -22 2 -48 0 -58 -4z"/>
<path d="M3866 8694 c-8 -21 -8 -24 3 -24 12 0 22 28 12 35 -5 3 -12 -2 -15
-11z"/>
<path d="M3849 8648 c-6 -25 -6 -38 1 -38 12 0 20 29 10 35 -6 4 -10 5 -11 3z"/>
<path d="M3721 8571 c-13 -8 -16 -60 -12 -210 l1 -43 58 4 c61 5 146 40 175
71 9 11 18 31 18 44 1 12 2 29 3 36 4 22 -22 63 -51 83 -30 20 -166 30 -192
15z"/>
<path d="M3896 8322 c-2 -4 -1 -14 3 -21 6 -10 10 -9 14 3 6 16 -8 32 -17 18z"/>
<path d="M3733 8053 c-21 -4 -23 -10 -24 -66 -1 -34 -2 -90 -3 -124 -2 -59 -1
-62 23 -67 74 -13 162 14 212 66 42 42 39 99 -8 144 -38 38 -132 59 -200 47z"/>
<path d="M3820 7770 c0 -5 5 -10 11 -10 5 0 7 5 4 10 -3 6 -8 10 -11 10 -2 0
-4 -4 -4 -10z"/>
<path d="M6765 8820 c3 -5 10 -10 16 -10 5 0 9 5 9 10 0 6 -7 10 -16 10 -8 0
-12 -4 -9 -10z"/>
<path d="M6767 8688 c-28 -10 -28 -28 -1 -28 15 0 44 23 44 34 0 8 -9 7 -43
-6z"/>
<path d="M6653 8630 c-21 -9 -21 -13 -18 -152 2 -79 4 -153 5 -165 1 -66 70
-59 146 15 92 88 123 155 116 247 -3 35 -58 58 -147 61 -44 1 -90 -2 -102 -6z"/>
<path d="M6739 8170 c-1 -8 -3 -25 -4 -37 -1 -13 3 -23 9 -24 6 0 1 -4 -11 -9
-28 -11 -30 -36 -4 -49 14 -8 23 -6 36 9 10 11 24 20 32 20 11 0 11 4 1 20 -7
11 -19 18 -27 15 -10 -4 -11 -2 -3 7 8 10 6 20 -8 38 -14 18 -20 21 -21 10z"/>
<path d="M6910 8120 c-13 -8 -12 -10 3 -10 9 0 17 5 17 10 0 12 -1 12 -20 0z"/>
<path d="M8735 8623 c-70 -14 -65 -7 -60 -86 2 -39 4 -112 4 -162 2 -118 5
-122 71 -100 84 28 185 147 190 225 5 65 1 78 -34 98 -33 19 -130 34 -171 25z"/>
<path d="M8783 8093 c-7 -2 -13 -9 -13 -15 0 -6 6 -5 15 2 20 16 32 5 16 -14
-7 -8 -19 -12 -27 -9 -8 3 -14 0 -14 -6 0 -15 22 -14 45 3 11 8 16 19 12 30
-7 16 -13 18 -34 9z"/>
<path d="M9320 8711 c0 -12 11 -14 50 -11 33 2 47 16 15 15 -14 -1 -28 -5 -32
-8 -3 -4 -12 -2 -20 4 -9 9 -13 8 -13 0z"/>
<path d="M9441 8626 c2 -2 14 -9 27 -15 18 -10 22 -9 22 4 0 10 -9 15 -27 15
-14 0 -24 -2 -22 -4z"/>
<path d="M9974 8613 c10 -10 46 -11 46 -1 0 4 -12 8 -27 8 -14 0 -23 -3 -19
-7z"/>
<path d="M10648 8393 c7 -3 16 -2 19 1 4 3 -2 6 -13 5 -11 0 -14 -3 -6 -6z"/>
<path d="M10680 8362 c0 -5 7 -13 16 -16 10 -4 14 -1 12 6 -5 15 -28 23 -28
10z"/>
<path d="M10509 8018 c-5 -43 -3 -178 3 -178 8 0 15 141 6 146 -3 2 -4 13 -1
24 3 11 3 20 -1 20 -3 0 -7 -6 -7 -12z"/>
<path d="M10506 7805 c-3 -8 -1 -15 4 -15 6 0 10 7 10 15 0 8 -2 15 -4 15 -2
0 -6 -7 -10 -15z"/>
<path d="M10497 7596 c-3 -8 -2 -18 3 -21 13 -8 20 9 11 24 -6 10 -10 9 -14
-3z"/>
<path d="M4802 2228 c-34 -4 -73 -10 -85 -14 -12 -4 -27 -9 -33 -10 -6 -1 -36
-14 -67 -28 -223 -106 -390 -324 -433 -566 -11 -64 -6 -196 10 -275 52 -248
246 -463 476 -528 110 -31 127 -33 220 -31 343 7 626 241 706 584 3 14 7 68 8
120 3 102 -17 203 -56 289 -99 216 -319 395 -554 450 -66 15 -117 18 -192 9z"/>
</g>
</svg>
